<svg id="Capa_1" data-name="Capa 1" xmlns="http://www.w3.org/2000/svg" viewBox="0 0 1842 406"><defs><style>.cls-1{fill:#4d4d4d;}.cls-2{fill:#5d73f5;}</style></defs><title>#01 Horizontal Logo</title><path class="cls-1" d="M805,294.09c7.35,0,14.16-.27,19.88-.82a141.15,141.15,0,0,0,14.71-1.91v-49.3a109.6,109.6,0,0,0-13.89-3A116,116,0,0,0,808.49,238a103.71,103.71,0,0,0-16.07,1.36A45.59,45.59,0,0,0,778.26,244a30.39,30.39,0,0,0-10.08,8.44,20.8,20.8,0,0,0-4.09,13.07c0,10.89,3.54,18.25,10.89,22.61,7.63,4.09,17.43,6,30,6m-3-152c12.53,0,22.88,1.63,31.6,4.63,8.44,3,15.53,7.35,20.7,13.07A47.16,47.16,0,0,1,865.42,180a97.56,97.56,0,0,1,3.27,25.88V310.16c-7.08,1.09-16.07,2.72-27.51,4.36A248.18,248.18,0,0,1,806,317a143.09,143.09,0,0,1-26.69-2.45,75.14,75.14,0,0,1-23.15-8.17A46.18,46.18,0,0,1,740.13,290c-4.09-7.08-6-15.8-6-26.69,0-9.53,2.18-17.7,6.26-24.24A50.31,50.31,0,0,1,756.47,223a66.33,66.33,0,0,1,22.61-8.72A117.6,117.6,0,0,1,805,211.56a148.28,148.28,0,0,1,34.59,4.09v-8.17a65.8,65.8,0,0,0-1.63-14.71,32.51,32.51,0,0,0-6-12.8,33.16,33.16,0,0,0-12.26-9.26c-5.18-2.18-11.71-3.54-19.88-3.54a154.2,154.2,0,0,0-27,2.18,128.48,128.48,0,0,0-17.7,4.36l-3.54-24.51q6.13-2.86,20.43-4.9a206.51,206.51,0,0,1,30-2.18"/><polygon class="cls-1" points="1044.64 255.41 961.84 87.36 926.7 87.36 926.7 310.16 955.85 310.16 955.85 142.1 1038.65 310.16 1073.79 310.16 1073.79 87.36 1044.64 87.36 1044.64 255.41"/><polygon class="cls-1" points="663.86 255.41 581.06 87.36 575.34 87.36 546.2 87.36 546.2 310.16 575.34 310.16 575.34 142.1 657.87 310.16 693.01 310.16 693.01 87.36 663.86 87.36 663.86 255.41"/><polygon class="cls-1" points="1156.86 87.36 1139.15 87.36 1139.15 310.16 1248.65 310.16 1248.65 294.09 1248.65 292.73 1156.86 292.73 1156.86 87.36"/><path class="cls-1" d="M1363.32,87.36l-70.82,222.8h18.25l18.52-61.28h84.16l19.07,61.28h18.25l-71.09-222.8Zm8.17,28.6,36.77,115.49h-73.54Z"/><path class="cls-1" d="M1589.39,193.86a46.68,46.68,0,0,0,22.06-18.25c5.18-8.44,7.9-18.52,7.9-30,0-19.07-5.18-33.77-15.53-43.58s-25.6-14.71-45.76-14.71h-56.38v222.8h62.92c19.61,0,34.59-5.72,45.21-16.89s15.8-26.42,15.8-46c0-13.35-3.27-24.79-10.08-34.59q-9.81-14.71-26.15-18.79m-29.69-7.63h-39.49V105.06h38.13c14.16,0,25.06,3.27,32.14,9.81s10.35,16.61,10.35,30.51c0,13.62-3.54,24-10.62,30.78-7.35,6.54-17.43,10.08-30.51,10.08M1565.42,293h-45.21V203.93h47.94c12.26.27,22.06,4.36,28.87,12s10.35,18.25,10.35,31.6c0,14.16-3.81,25.33-11.17,33.23-7.63,8.17-18,12.26-30.78,12.26"/><path class="cls-1" d="M1804.84,225.72a57.64,57.64,0,0,0-19.07-21q-12.67-9-37.59-17.16c-16.34-5.45-28.33-11.71-35.68-18.52s-10.89-15.53-10.89-26.42c0-11.44,3.81-21,11.71-28.33,7.63-7.35,18.52-10.89,32.14-10.89,13.89,0,25.06,4.36,33,13.35q12.26,13.48,12.26,35.14V153H1810v-1.09c0-19.34-6-35.41-18-47.94-12-12.26-27.51-18.52-46.3-18.52-18.52,0-33.77,5.45-45.21,16.07-11.71,10.62-17.7,24.79-17.7,41.67q0,25.74,18,41.67c9,7.9,23.15,15.25,42.22,21.79,18.79,6.26,31.87,13.07,38.68,19.88s10.08,16.34,10.08,28.33-4.09,21.79-12.26,29.14-19.07,10.89-32.68,10.89c-15.53,0-28.05-4.36-37-13.07s-13.62-20.7-13.62-35.68v-1.36h-19.07v1.09c0,13.62,3,25.6,9,35.41a59.62,59.62,0,0,0,25.33,23.15c10.62,5.45,22.61,7.9,35.68,7.9,19.34,0,34.86-5.45,46.58-16.07s17.7-24.79,17.7-42.22c-.54-10.62-2.45-20.43-6.54-28.33"/><path class="cls-2" d="M210.68,13.46C107.07,13.46,22.93,97.6,22.93,201.21S107.07,389,210.68,389s187.75-84.14,187.75-187.75S314.29,13.46,210.68,13.46ZM267,62.14V273.53L161.66,59.36a151.09,151.09,0,0,1,49-8.34A145.32,145.32,0,0,1,267,62.14ZM60.48,201.21A149.62,149.62,0,0,1,116.81,84V318.38A149.62,149.62,0,0,1,60.48,201.21ZM154,340.28V128.89L259.36,343.07a151.09,151.09,0,0,1-49,8.34A145.33,145.33,0,0,1,154,340.28Zm150.55-21.9V84a150,150,0,0,1,0,234.34Z"/></svg>